<?xml version="1.0" standalone="no"?>
<!DOCTYPE svg PUBLIC "-//W3C//DTD SVG 20010904//EN"
 "http://www.w3.org/TR/2001/REC-SVG-20010904/DTD/svg10.dtd">
<svg version="1.0" xmlns="http://www.w3.org/2000/svg"
 width="600.000000pt" height="600.000000pt" viewBox="0 0 600.000000 600.000000"
 preserveAspectRatio="xMidYMid meet">
<metadata>
Created by potrace 1.14, written by Peter Selinger 2001-2017
</metadata>
<g transform="translate(0.000000,600.000000) scale(0.100000,-0.100000)"
fill="#000000" stroke="none">
<path d="M1743 5282 l-1253 -627 0 -1503 0 -1502 45 -22 c25 -12 45 -26 45
-31 0 -4 5 -5 12 -1 8 5 9 1 4 -12 -5 -15 -4 -16 5 -7 15 15 59 -4 59 -26 0
-12 2 -13 9 -3 6 10 10 10 21 -2 7 -9 16 -13 21 -10 5 3 9 0 9 -5 0 -6 3 -10
8 -10 19 3 32 -2 32 -12 0 -8 -5 -7 -15 1 -13 11 -14 10 -9 -4 7 -18 30 -22
36 -5 2 7 10 4 18 -7 13 -16 13 -17 0 -9 -12 6 -13 6 -2 -6 11 -12 14 -12 22
1 5 8 10 10 10 5 0 -6 14 -15 32 -20 17 -6 34 -16 36 -24 4 -11 -1 -10 -19 2
-29 21 -45 22 -27 3 7 -8 16 -12 20 -10 3 2 8 -1 10 -8 3 -8 9 -8 23 -1 15 9
32 4 84 -24 70 -37 93 -53 73 -53 -6 0 -16 -10 -22 -22 -9 -19 -9 -21 2 -8 7
8 22 22 32 30 16 12 18 12 11 1 -6 -11 -4 -13 9 -8 12 5 16 3 13 -5 -2 -7 -15
-12 -28 -11 -21 2 -22 2 -6 -8 14 -8 23 -7 39 8 12 10 18 12 14 5 -5 -9 -3
-13 5 -11 18 3 49 -10 73 -30 10 -9 20 -15 22 -13 9 6 64 -29 64 -41 0 -8 4
-7 10 3 7 11 10 11 10 2 0 -7 4 -10 10 -7 6 4 7 -1 3 -12 -6 -16 -5 -16 10 -4
12 9 17 10 17 2 0 -7 4 -10 9 -7 5 3 20 -3 33 -14 14 -11 28 -16 32 -12 4 3 4
-2 0 -13 -7 -17 -5 -18 8 -8 8 7 18 10 21 6 10 -9 9 -25 -1 -19 -4 2 -14 0
-22 -5 -11 -7 -7 -8 14 -5 16 3 31 7 34 10 2 3 17 -3 31 -13 14 -10 31 -19 36
-20 6 -1 18 -4 28 -7 16 -5 16 -7 -2 -33 -18 -25 -18 -27 -2 -27 12 0 16 6 14
17 -5 18 23 34 33 18 3 -5 0 -17 -8 -26 -12 -16 -11 -16 11 0 23 15 26 15 51
-3 15 -11 30 -17 33 -13 4 3 9 -2 13 -11 3 -9 10 -13 15 -11 4 3 17 -3 28 -14
13 -13 21 -16 25 -8 3 9 5 9 5 0 1 -7 10 -13 21 -13 11 0 20 -4 20 -10 0 -5
-8 -7 -17 -3 -10 3 -15 3 -12 -1 11 -12 50 -16 43 -4 -5 7 -2 8 5 4 7 -5 10
-14 7 -22 -5 -12 -2 -12 15 -3 17 9 20 8 14 -2 -6 -9 -3 -11 8 -6 10 3 17 2
17 -3 0 -6 3 -9 8 -9 19 3 33 -2 27 -11 -4 -7 -12 -7 -25 0 -21 11 -50 -13
-30 -25 6 -4 9 -1 8 7 -2 7 4 11 12 9 18 -4 31 -5 45 -1 14 4 75 -23 75 -33 0
-4 -5 -5 -12 -1 -7 4 -8 3 -4 -5 6 -9 11 -9 24 1 10 8 13 9 9 1 -4 -6 -3 -14
3 -18 5 -3 10 0 10 7 1 7 9 3 20 -11 12 -14 20 -18 20 -10 0 10 3 11 8 3 4 -7
16 -13 26 -15 11 -2 22 -11 24 -19 5 -13 3 -13 -12 -1 -9 8 -19 11 -23 7 -3
-3 -1 -6 5 -6 6 0 9 -6 6 -14 -3 -8 -1 -17 5 -21 7 -4 8 1 4 12 -3 10 -3 15 2
11 4 -4 14 -3 22 3 15 13 18 -2 3 -17 -7 -7 -5 -16 8 -27 15 -14 19 -14 19 -2
0 8 -4 12 -8 9 -4 -2 -10 0 -14 5 -7 12 25 30 43 24 6 -3 12 -9 12 -15 0 -6
-8 -5 -17 3 -16 12 -17 12 -6 -2 7 -9 9 -20 5 -25 -4 -4 0 -3 9 4 9 6 20 8 24
4 5 -4 5 -1 0 6 -6 11 -3 12 14 3 11 -7 21 -17 21 -22 0 -6 7 -8 16 -5 12 5
15 2 10 -10 -5 -13 -4 -14 7 -6 14 12 27 6 27 -12 0 -6 -5 -4 -10 4 -6 9 -10
10 -10 3 0 -17 14 -23 30 -13 16 10 40 2 40 -12 0 -6 -8 -4 -17 3 -16 12 -17
12 -6 -2 7 -9 9 -20 5 -25 -4 -5 2 -2 13 7 21 17 45 15 45 -3 0 -6 -7 -5 -18
3 -15 12 -15 11 1 -8 18 -20 18 -22 0 -32 -16 -9 -16 -10 4 -8 12 0 19 5 17 9
-3 4 -1 8 5 8 5 0 11 -3 14 -7 2 -5 2 -3 1 4 -2 7 1 15 6 18 6 4 10 1 10 -5 0
-6 5 -8 13 -4 9 6 9 4 -1 -8 -9 -11 -10 -18 -2 -23 6 -3 8 -11 4 -16 -3 -5
-10 -6 -16 -3 -7 4 -8 2 -4 -5 6 -9 11 -9 22 0 10 8 11 15 4 24 -17 20 11 23
46 5 17 -9 29 -21 26 -28 -5 -16 15 -16 21 1 4 9 6 9 6 0 1 -7 10 -13 21 -13
11 0 20 -4 20 -10 0 -5 3 -9 8 -9 24 4 33 -3 27 -21 -4 -14 -2 -20 7 -18 7 2
12 -3 10 -11 -3 -12 0 -12 12 -2 8 7 21 9 27 5 8 -4 9 -3 5 4 -5 8 -2 10 8 6
9 -3 13 -11 10 -16 -4 -6 -1 -8 7 -6 8 3 26 -4 42 -14 15 -11 27 -16 27 -11 0
4 9 -6 19 -23 11 -18 25 -35 33 -40 11 -6 11 -5 0 8 -10 13 -10 17 0 20 11 4
30 -4 66 -28 2 -1 -2 -13 -8 -26 l-11 -23 18 23 c18 22 53 23 53 2 0 -5 9 -6
20 -3 13 3 20 0 21 -8 0 -8 4 -4 9 8 7 16 14 21 26 16 12 -4 15 -3 10 5 -5 8
-1 10 10 5 12 -4 15 -3 10 6 -4 6 -4 10 1 9 4 -1 17 3 28 9 15 8 24 8 37 -1
10 -7 16 -16 13 -19 -3 -4 -2 -5 2 -2 4 3 8 16 10 28 2 17 1 19 -6 7 -6 -8
-13 -11 -17 -7 -11 11 28 36 45 29 10 -4 12 -1 6 9 -4 8 -4 11 0 6 5 -4 17 0
27 10 10 9 18 13 18 8 0 -4 7 -1 16 6 22 18 68 24 58 8 -5 -8 -3 -9 6 -4 7 4
16 2 20 -5 6 -10 12 -9 26 5 17 17 17 17 -2 11 -12 -4 -28 0 -40 10 -10 8 -14
13 -7 10 6 -4 14 0 16 6 4 10 6 10 6 1 1 -7 6 -13 12 -13 5 0 7 5 4 10 -3 6
-1 10 4 10 6 0 11 -4 11 -10 0 -5 5 -10 10 -10 7 0 7 7 -1 21 -6 12 -7 19 -1
15 5 -3 15 1 22 9 7 8 16 13 20 10 5 -3 11 -1 14 4 3 5 15 7 27 4 15 -4 17 -9
9 -17 -8 -8 -13 -7 -20 4 -8 12 -10 12 -10 1 0 -8 -6 -11 -16 -7 -9 3 -12 2
-9 -5 4 -5 1 -17 -7 -26 -11 -14 -11 -16 1 -8 11 6 13 4 8 -9 -4 -11 -3 -15 4
-11 6 4 8 13 5 20 -8 21 14 36 37 24 15 -9 18 -8 12 2 -6 9 -3 11 9 6 14 -6
15 -3 6 13 -6 11 -16 20 -22 20 -7 0 -3 6 8 14 15 11 22 12 33 3 12 -10 14 -9
8 5 -3 10 -3 17 1 16 4 -1 17 3 29 10 16 9 24 9 29 0 5 -7 3 -8 -6 -3 -9 5
-11 4 -6 -3 5 -8 1 -10 -11 -5 -15 6 -16 5 -3 -9 8 -9 17 -12 18 -7 8 21 43
31 60 17 15 -11 15 -11 6 2 -15 21 -26 52 -15 46 5 -3 14 1 21 9 7 8 16 13 20
10 5 -3 11 -1 15 4 3 6 12 8 20 5 8 -4 13 -9 11 -13 -3 -4 4 -7 14 -8 11 -1
22 2 25 8 3 5 -1 6 -10 3 -11 -5 -14 -2 -9 12 4 14 3 16 -4 5 -6 -8 -12 -9
-16 -3 -6 10 14 22 47 29 11 2 16 -1 12 -8 -4 -6 -14 -8 -22 -5 -8 4 -11 1 -8
-5 4 -6 14 -8 22 -5 9 4 23 1 32 -6 14 -11 14 -11 5 2 -15 21 -26 52 -15 46 5
-3 14 1 21 9 7 8 16 13 20 10 5 -3 11 -1 15 4 3 6 13 7 22 4 10 -4 14 -2 10 4
-6 9 14 24 35 27 3 1 9 4 13 7 9 10 46 -2 39 -13 -3 -5 -12 -4 -20 3 -11 9
-14 9 -14 -1 0 -7 -7 -10 -16 -6 -9 3 -12 2 -9 -5 4 -6 14 -8 22 -5 9 4 23 1
31 -6 10 -8 13 -9 9 -1 -4 6 -1 14 5 17 10 3 8 9 -5 19 -16 13 -16 15 -2 21 9
3 14 2 11 -3 -7 -11 20 -22 37 -15 17 6 18 31 1 31 -7 0 -10 -6 -7 -14 3 -7 0
-13 -7 -13 -6 0 -10 7 -8 16 2 8 6 14 9 12 4 -2 16 6 28 16 12 11 21 16 21 12
0 -4 14 3 32 15 17 13 28 18 24 11 -4 -7 -1 -12 9 -12 9 0 13 -5 10 -10 -4 -6
-10 -8 -14 -6 -4 3 -12 2 -18 -2 -8 -5 -7 -13 4 -27 15 -19 15 -19 8 5 -7 23
-7 24 10 10 11 -8 16 -10 12 -3 -4 6 -1 13 5 16 10 3 10 7 1 19 -16 18 2 39
25 31 11 -5 13 -3 7 7 -5 9 -4 11 3 6 7 -4 12 -1 13 6 0 7 7 0 14 -17 9 -19
14 -24 15 -12 0 19 11 22 26 7 6 -6 15 -5 24 1 13 9 12 10 -2 5 -10 -3 -20 -1
-24 5 -3 6 -12 8 -20 5 -8 -3 -14 -1 -14 4 0 13 58 10 85 -3 11 -5 17 -6 13
-2 -4 4 0 14 8 22 9 10 11 19 5 27 -6 7 -1 17 17 30 14 11 22 15 19 9 -4 -6 4
-13 17 -15 17 -4 23 -1 19 9 -3 7 -10 10 -17 6 -6 -3 -8 -2 -3 2 4 5 17 10 29
12 11 2 26 9 32 16 16 19 51 44 43 31 -4 -7 0 -15 9 -18 12 -4 15 -2 10 9 -3
8 -1 15 3 15 15 0 20 -27 8 -41 -10 -11 -9 -11 4 -1 9 6 20 8 24 4 5 -4 4 -1
0 7 -6 11 -4 13 9 8 10 -4 15 -3 11 4 -4 5 -2 16 5 24 8 10 8 15 -1 21 -8 5
-9 3 -4 -6 6 -9 4 -11 -5 -5 -9 6 -11 4 -5 -5 6 -9 4 -11 -5 -5 -8 5 -11 4 -6
-3 3 -6 2 -13 -3 -16 -5 -3 -11 3 -14 14 -3 11 -2 18 3 15 4 -3 13 2 20 10 6
7 19 11 27 8 12 -5 14 -3 8 7 -5 8 -4 11 3 7 15 -10 43 3 35 17 -3 6 -3 8 2 4
4 -4 21 2 38 14 17 12 28 17 24 11 -4 -6 3 -13 17 -15 17 -4 23 -1 19 9 -3 7
-10 10 -17 6 -6 -3 -7 -2 -3 3 5 5 13 10 18 10 5 1 14 2 20 3 5 0 7 7 3 14 -4
6 -4 9 1 5 4 -4 20 1 34 11 14 10 32 16 40 13 9 -3 11 0 6 9 -5 8 -4 11 0 6 5
-4 17 0 27 10 10 9 18 13 18 9 0 -4 14 2 30 14 17 12 30 18 30 14 0 -3 7 -1
15 6 8 7 15 10 15 6 0 -3 9 2 20 12 12 9 22 15 24 12 2 -3 13 4 25 14 12 11
21 15 21 11 0 -4 10 0 22 11 12 10 18 13 14 7 -5 -8 -1 -13 10 -13 10 0 14 3
11 7 -11 11 14 32 30 26 12 -5 14 -3 8 7 -5 9 -4 11 3 6 7 -4 12 -1 12 6 0 9
3 9 10 -2 13 -20 13 -43 0 -35 -6 4 -7 11 -4 17 4 7 2 8 -5 4 -9 -6 -9 -11 0
-22 13 -16 29 -9 29 13 0 9 6 13 14 10 18 -7 69 31 60 44 -3 5 -10 7 -15 3 -5
-3 -7 -9 -5 -13 3 -4 -4 -12 -15 -19 -14 -9 -19 -9 -19 -1 0 8 -4 8 -13 0 -10
-8 -14 -7 -14 4 0 8 4 12 9 9 4 -3 8 1 8 8 0 9 3 9 10 -2 9 -13 14 -7 11 12 0
5 2 7 7 6 4 -1 18 4 31 11 19 11 22 11 16 -1 -4 -7 2 -3 12 9 20 24 52 17 38
-8 -6 -11 -5 -11 5 -2 10 9 10 15 1 26 -9 12 -8 16 5 21 22 8 22 9 18 -20 -1
-14 1 -23 4 -19 7 7 8 12 11 40 1 18 51 44 70 37 8 -2 11 0 7 6 -7 12 22 25
36 15 6 -3 8 -2 5 4 -4 6 5 15 18 21 l25 12 0 1502 0 1503 -1255 628 c-690
345 -1256 627 -1258 626 -1 0 -566 -282 -1254 -627z m2561 -4261 c10 -1 -13
-31 -24 -31 -4 0 -10 9 -13 19 -3 13 0 18 12 16 9 -2 20 -4 25 -4z m-44 -15
c0 -11 -19 -15 -25 -6 -3 5 1 10 9 10 9 0 16 -2 16 -4z m-645 -326 c-3 -5 -10
-10 -16 -10 -5 0 -9 5 -9 10 0 6 7 10 16 10 8 0 12 -4 9 -10z m-1175 -10 c0
-5 -5 -10 -11 -10 -5 0 -7 5 -4 10 3 6 8 10 11 10 2 0 4 -4 4 -10z m252 -124
c7 4 8 2 4 -5 -9 -13 -26 -5 -25 12 0 9 2 8 6 -1 2 -6 10 -9 15 -6z m168 -81
c0 -12 -19 -12 -23 0 -4 9 -1 12 9 8 7 -3 14 -7 14 -8z"/>
<path d="M5453 1571 c0 -11 5 -18 9 -15 4 3 5 11 1 19 -7 21 -12 19 -10 -4z"/>
<path d="M5276 1515 c-3 -8 -1 -15 4 -15 6 0 10 7 10 15 0 8 -2 15 -4 15 -2 0
-6 -7 -10 -15z"/>
<path d="M700 1500 c-12 -7 -10 -9 7 -7 12 0 19 5 17 9 -6 10 -6 10 -24 -2z"/>
<path d="M5290 1482 c0 -5 7 -9 15 -9 8 0 12 4 9 9 -3 4 -9 8 -15 8 -5 0 -9
-4 -9 -8z"/>
<path d="M773 1449 c-2 -23 3 -25 10 -4 4 8 3 16 -1 19 -4 3 -9 -4 -9 -15z"/>
<path d="M811 1444 c0 -11 3 -14 6 -6 3 7 2 16 -1 19 -3 4 -6 -2 -5 -13z"/>
<path d="M5230 1438 c0 -4 4 -8 9 -8 6 0 12 4 15 8 3 5 -1 9 -9 9 -8 0 -15 -4
-15 -9z"/>
<path d="M5094 1428 c-4 -7 -3 -8 4 -4 7 4 12 3 12 -3 0 -5 -8 -15 -17 -20
-10 -6 -13 -11 -6 -11 6 0 15 5 18 10 3 6 11 10 18 10 8 0 8 -3 -1 -12 -15
-15 -15 -28 -1 -28 5 0 8 4 4 9 -3 5 -1 12 4 16 13 7 4 32 -14 39 -8 3 -17 0
-21 -6z"/>
<path d="M830 1421 c0 -6 4 -13 10 -16 6 -3 7 1 4 9 -7 18 -14 21 -14 7z"/>
<path d="M921 1414 c14 -17 67 -44 86 -44 8 0 11 -4 8 -10 -3 -5 -1 -10 5 -10
25 0 2 20 -52 48 -32 16 -53 23 -47 16z"/>
<path d="M5199 1413 c-13 -16 -12 -17 4 -4 9 7 17 15 17 17 0 8 -8 3 -21 -13z"/>
<path d="M890 1399 c0 -5 5 -7 10 -4 6 3 10 8 10 11 0 2 -4 4 -10 4 -5 0 -10
-5 -10 -11z"/>
<path d="M5042 1398 c-7 -7 -12 -8 -12 -3 0 4 -9 0 -20 -10 -11 -10 -20 -14
-20 -10 0 5 -11 -2 -25 -15 -14 -13 -25 -20 -25 -16 0 5 -7 3 -15 -4 -8 -7
-15 -9 -15 -6 0 4 -13 -2 -30 -14 -16 -12 -30 -18 -30 -14 0 4 -11 -3 -25 -16
-14 -13 -28 -21 -31 -17 -10 10 -65 -33 -57 -45 4 -8 0 -9 -13 -4 -15 6 -16 5
-7 -5 10 -10 15 -9 27 1 9 7 13 17 9 23 -4 6 0 8 11 4 9 -4 14 -3 11 2 -3 5
-1 12 5 16 5 3 10 1 10 -6 0 -8 4 -8 15 1 12 10 18 10 30 0 11 -9 15 -9 15 -1
0 7 5 9 13 5 6 -4 9 -4 5 1 -4 4 0 14 10 22 16 12 16 13 -2 6 -13 -4 -17 -3
-12 5 4 7 14 12 22 12 8 0 14 5 14 11 0 5 11 -3 24 -18 21 -24 27 -26 38 -14
10 11 10 12 0 7 -14 -8 -42 10 -42 26 0 6 7 5 15 -2 9 -7 18 -10 22 -6 3 3 1
6 -6 6 -7 0 -9 5 -6 10 4 6 11 7 17 4 6 -4 9 -3 6 2 -3 5 0 15 7 21 11 10 15
9 20 -8 7 -20 8 -19 26 10 19 32 35 42 26 16 -4 -8 -1 -17 6 -21 7 -4 9 -4 5
1 -4 4 -3 16 2 26 12 21 -2 33 -18 17z m-24 -28 c-7 -10 -14 -17 -17 -15 -4 4
18 35 25 35 2 0 -1 -9 -8 -20z m-167 -93 c-13 -13 -26 -3 -16 12 3 6 11 8 17
5 6 -4 6 -10 -1 -17z"/>
<path d="M913 1383 c4 -3 1 -13 -6 -22 -11 -14 -10 -14 6 -2 20 15 22 31 5 31
-6 0 -8 -3 -5 -7z"/>
<path d="M5146 1378 c3 -5 10 -6 15 -3 13 9 11 12 -6 12 -8 0 -12 -4 -9 -9z"/>
<path d="M950 1376 c0 -2 8 -10 18 -17 15 -13 16 -12 3 4 -13 16 -21 21 -21
13z"/>
<path d="M5071 1364 c0 -11 3 -14 6 -6 3 7 2 16 -1 19 -3 4 -6 -2 -5 -13z"/>
<path d="M976 1327 c3 -10 9 -15 12 -12 3 3 0 11 -7 18 -10 9 -11 8 -5 -6z"/>
<path d="M4976 1325 c-3 -8 -1 -15 4 -15 6 0 10 7 10 15 0 8 -2 15 -4 15 -2 0
-6 -7 -10 -15z"/>
<path d="M5073 1325 c0 -8 4 -12 9 -9 5 3 6 10 3 15 -9 13 -12 11 -12 -6z"/>
<path d="M5015 1311 c-3 -5 -2 -12 3 -15 5 -3 9 1 9 9 0 17 -3 19 -12 6z"/>
<path d="M1097 1303 c-8 -7 11 -33 24 -33 5 0 9 5 9 10 0 6 -6 9 -12 8 -7 -2
-12 3 -10 10 2 13 -1 15 -11 5z"/>
<path d="M1135 1300 c3 -5 13 -10 21 -10 8 0 12 -4 9 -10 -4 -6 1 -7 11 -3 14
5 13 8 -7 19 -29 16 -42 18 -34 4z"/>
<path d="M4896 1284 c-4 -9 -4 -19 -1 -22 3 -3 5 0 5 8 0 10 4 10 18 -1 16
-13 16 -13 2 6 -8 11 -15 21 -16 23 -1 2 -4 -5 -8 -14z"/>
<path d="M1215 1270 c5 -9 1 -10 -16 -6 -21 6 -22 6 -6 -5 13 -7 22 -8 29 -1
6 6 6 12 -3 17 -8 6 -10 4 -4 -5z"/>
<path d="M1235 1250 c-4 -6 -1 -9 7 -8 7 2 12 -3 11 -9 -2 -7 2 -13 7 -13 14
0 12 16 -4 29 -10 8 -16 9 -21 1z"/>
<path d="M4797 1235 c-8 -8 -18 -11 -22 -7 -5 4 -5 1 -1 -6 6 -11 12 -10 29 5
12 10 24 19 26 20 2 2 -1 3 -7 3 -6 0 -17 -7 -25 -15z"/>
<path d="M1170 1225 c0 -7 30 -13 34 -7 3 4 -4 9 -15 9 -10 1 -19 0 -19 -2z"/>
<path d="M4830 1216 c4 -4 16 -4 26 2 16 9 14 10 -8 9 -15 -1 -23 -6 -18 -11z"/>
<path d="M1246 1198 c3 -5 10 -6 15 -3 13 9 11 12 -6 12 -8 0 -12 -4 -9 -9z"/>
<path d="M1324 1199 c-3 -6 -3 -13 0 -16 3 -4 6 -1 6 5 0 6 11 9 27 6 15 -3
25 -3 22 1 -12 11 -49 14 -55 4z"/>
<path d="M4635 1196 c-20 -15 -30 -52 -16 -61 5 -3 13 0 17 6 4 8 3 9 -4 5 -7
-4 -12 -3 -12 2 0 19 14 21 34 5 15 -13 17 -14 9 -2 -7 8 -11 25 -8 37 5 26 4
26 -20 8z m15 -10 c0 -2 -7 -7 -16 -10 -8 -3 -12 -2 -9 4 6 10 25 14 25 6z"/>
<path d="M4753 1195 c0 -8 4 -12 9 -9 4 3 8 9 8 15 0 5 -4 9 -8 9 -5 0 -9 -7
-9 -15z"/>
<path d="M1276 1182 c-2 -4 -1 -14 4 -22 7 -11 9 -9 7 8 -1 24 -3 26 -11 14z"/>
<path d="M4696 1181 c-3 -4 6 -6 19 -3 14 2 25 6 25 8 0 8 -39 4 -44 -5z"/>
<path d="M1348 1173 c7 -3 16 -2 19 1 4 3 -2 6 -13 5 -11 0 -14 -3 -6 -6z"/>
<path d="M1380 1171 c0 -6 4 -13 10 -16 6 -3 7 1 4 9 -7 18 -14 21 -14 7z"/>
<path d="M4576 1148 c-19 -27 -22 -49 -3 -24 12 16 14 16 26 2 8 -9 18 -16 24
-16 6 0 1 7 -11 16 -13 9 -21 22 -18 30 8 21 -1 17 -18 -8z"/>
<path d="M1416 1121 c8 -8 43 -8 38 0 -2 4 -13 7 -24 6 -10 -1 -17 -3 -14 -6z"/>
<path d="M1498 1118 c12 -8 19 -17 16 -21 -4 -4 -3 -7 3 -7 15 0 24 27 10 27
-7 0 -21 4 -32 7 -16 6 -15 4 3 -6z"/>
<path d="M1545 1099 c-4 -6 -5 -12 -2 -15 2 -3 7 2 10 11 7 17 1 20 -8 4z"/>
<path d="M4440 1100 c-8 -5 -10 -10 -5 -11 6 0 18 -2 28 -4 15 -3 16 -1 6 11
-14 16 -10 16 -29 4z"/>
<path d="M1491 1073 c7 -12 15 -20 18 -17 3 2 -3 12 -13 22 -17 16 -18 16 -5
-5z"/>
<path d="M4420 1071 c-8 -6 -19 -7 -25 -4 -5 3 -4 0 3 -8 10 -11 15 -10 29 4
19 19 16 22 -7 8z"/>
<path d="M1643 1054 c9 -11 14 -24 10 -29 -5 -4 -3 -5 4 -2 6 4 13 2 15 -4 2
-7 9 -10 14 -8 6 2 -6 17 -25 34 -20 16 -28 20 -18 9z"/>
<path d="M4500 1065 c0 -8 29 -12 39 -5 9 5 4 8 -13 8 -14 0 -26 -2 -26 -3z"/>
<path d="M1610 1039 c0 -5 5 -7 10 -4 6 3 10 8 10 11 0 2 -4 4 -10 4 -5 0 -10
-5 -10 -11z"/>
<path d="M4326 1042 c-2 -4 -1 -14 3 -21 6 -10 10 -9 14 3 6 16 -8 32 -17 18z"/>
<path d="M4433 1044 c8 -9 47 -13 51 -6 2 4 -9 8 -25 8 -17 1 -28 0 -26 -2z"/>
<path d="M1575 1020 c-3 -5 -1 -10 4 -10 6 0 11 5 11 10 0 6 -2 10 -4 10 -3 0
-8 -4 -11 -10z"/>
<path d="M4379 1028 c-6 -21 -5 -37 2 -32 5 3 7 9 4 14 -3 5 5 11 17 13 l23 4
-22 2 c-13 0 -23 0 -24 -1z"/>
<path d="M1715 1010 c-4 -6 -1 -9 7 -8 7 2 12 -3 11 -9 -2 -7 2 -13 7 -13 14
0 12 16 -4 29 -10 8 -16 9 -21 1z"/>
<path d="M1649 997 c6 -8 7 -18 3 -22 -4 -5 -1 -5 6 -1 10 6 10 11 1 22 -6 8
-14 14 -16 14 -3 0 0 -6 6 -13z"/>
<path d="M4328 993 c6 -2 9 -10 6 -15 -4 -7 -2 -8 5 -4 13 9 5 26 -12 25 -9 0
-8 -2 1 -6z"/>
<path d="M1770 961 c0 -11 4 -22 9 -25 4 -3 6 6 3 19 -5 30 -12 33 -12 6z"/>
<path d="M4171 953 c-9 -15 -12 -15 -20 -4 -5 8 -11 9 -15 3 -7 -12 19 -23 37
-16 8 3 14 11 14 19 0 19 -4 19 -16 -2z"/>
<path d="M1716 938 c3 -4 11 -5 19 -1 21 7 19 12 -4 10 -11 0 -18 -5 -15 -9z"/>
<path d="M1816 918 c3 -5 10 -6 15 -3 13 9 11 12 -6 12 -8 0 -12 -4 -9 -9z"/>
<path d="M1850 919 c0 -5 5 -7 10 -4 6 3 10 8 10 11 0 2 -4 4 -10 4 -5 0 -10
-5 -10 -11z"/>
<path d="M4184 923 c8 -8 44 -11 55 -4 6 4 -4 8 -24 8 -19 0 -33 -2 -31 -4z"/>
<path d="M4066 913 c-4 -5 -12 -9 -17 -9 -5 -1 -11 -2 -14 -3 -11 -2 16 -41
28 -41 8 0 7 4 -3 10 -8 5 -11 12 -7 16 3 4 15 1 24 -7 16 -13 17 -12 5 3 -8
9 -11 22 -7 28 7 12 2 13 -9 3z"/>
<path d="M1959 897 c6 -8 7 -18 3 -22 -4 -5 -1 -5 6 -1 10 6 10 11 1 22 -6 8
-14 14 -16 14 -3 0 0 -6 6 -13z"/>
<path d="M1919 873 c-12 -16 -12 -17 2 -6 9 7 19 10 22 6 4 -3 7 -1 7 5 0 17
-16 15 -31 -5z"/>
<path d="M1976 861 c-3 -5 1 -14 9 -21 8 -7 12 -17 8 -23 -4 -6 -1 -7 6 -3 9
6 9 12 -3 25 -9 10 -13 21 -9 24 3 4 4 7 0 7 -3 0 -8 -4 -11 -9z"/>
<path d="M4135 860 c3 -5 8 -10 11 -10 2 0 4 5 4 10 0 6 -5 10 -11 10 -5 0 -7
-4 -4 -10z"/>
<path d="M2061 834 c0 -11 3 -14 6 -6 3 7 2 16 -1 19 -3 4 -6 -2 -5 -13z"/>
<path d="M4020 840 c0 -4 7 -7 15 -6 23 3 26 12 5 13 -11 1 -20 -2 -20 -7z"/>
<path d="M4070 841 c0 -6 4 -13 10 -16 6 -3 7 1 4 9 -7 18 -14 21 -14 7z"/>
<path d="M2020 825 c0 -2 6 -8 13 -14 10 -8 14 -7 14 2 0 8 -6 14 -14 14 -7 0
-13 -1 -13 -2z"/>
<path d="M3883 812 c-9 -15 -7 -18 8 -19 20 -2 23 5 11 24 -6 9 -11 8 -19 -5z"/>
<path d="M2093 801 c0 -11 5 -18 9 -15 4 3 5 11 1 19 -7 21 -12 19 -10 -4z"/>
<path d="M3845 800 c-4 -6 -10 -8 -15 -5 -15 9 -30 -19 -18 -35 8 -12 9 -12 4
2 -3 10 -1 20 4 23 13 8 18 -18 8 -40 -9 -20 -9 -20 6 -1 15 18 21 15 17 -7
-1 -5 3 -6 9 -2 8 5 8 11 1 19 -6 7 -9 22 -6 34 4 24 0 28 -10 12z"/>
<path d="M3930 800 c0 -5 5 -10 10 -10 6 0 10 5 10 10 0 6 -4 10 -10 10 -5 0
-10 -4 -10 -10z"/>
<path d="M3995 800 c3 -5 8 -10 11 -10 2 0 4 5 4 10 0 6 -5 10 -11 10 -5 0 -7
-4 -4 -10z"/>
<path d="M2036 778 c3 -4 11 -5 19 -1 21 7 19 12 -4 10 -11 0 -18 -5 -15 -9z"/>
<path d="M3870 771 c0 -6 4 -12 8 -15 5 -3 9 1 9 9 0 8 -4 15 -9 15 -4 0 -8
-4 -8 -9z"/>
<path d="M3910 770 c0 -5 5 -10 11 -10 5 0 7 5 4 10 -3 6 -8 10 -11 10 -2 0
-4 -4 -4 -10z"/>
<path d="M3946 762 c-3 -5 1 -9 9 -9 8 0 12 4 9 9 -3 4 -7 8 -9 8 -2 0 -6 -4
-9 -8z"/>
<path d="M2245 751 c-3 -5 -2 -12 3 -15 5 -3 9 1 9 9 0 17 -3 19 -12 6z"/>
<path d="M2135 740 c-3 -5 -1 -10 4 -10 6 0 11 5 11 10 0 6 -2 10 -4 10 -3 0
-8 -4 -11 -10z"/>
<path d="M2215 740 c-3 -5 -1 -10 4 -10 6 0 11 5 11 10 0 6 -2 10 -4 10 -3 0
-8 -4 -11 -10z"/>
<path d="M3685 720 c-4 -6 -10 -8 -15 -5 -15 9 -30 -19 -18 -35 8 -12 9 -12 4
2 -3 10 -1 20 4 23 13 8 18 -18 8 -40 -8 -18 -8 -19 5 -3 7 10 18 14 23 10 5
-4 6 -3 2 3 -16 19 -7 28 10 12 15 -14 19 -15 19 -2 0 8 -4 12 -8 10 -9 -6
-30 20 -22 28 3 4 4 7 0 7 -3 0 -9 -5 -12 -10z"/>
<path d="M3770 720 c0 -5 5 -10 10 -10 6 0 10 5 10 10 0 6 -4 10 -10 10 -5 0
-10 -4 -10 -10z"/>
<path d="M2270 706 c0 -2 9 -6 20 -9 11 -3 18 -1 14 4 -5 9 -34 13 -34 5z"/>
<path d="M2320 685 c0 -2 6 -8 13 -14 10 -8 14 -7 14 2 0 8 -6 14 -14 14 -7 0
-13 -1 -13 -2z"/>
<path d="M3540 640 c0 -5 5 -10 11 -10 5 0 7 5 4 10 -3 6 -8 10 -11 10 -2 0
-4 -4 -4 -10z"/>
<path d="M2496 627 c3 -9 10 -17 16 -17 5 0 6 -4 3 -10 -3 -6 1 -7 10 -4 9 4
15 7 13 8 -2 1 -13 10 -26 21 -20 16 -22 16 -16 2z"/>
<path d="M3497 634 c-3 -5 7 -18 21 -28 14 -11 22 -15 19 -9 -4 6 -4 13 0 16
5 2 2 2 -4 1 -7 -2 -16 4 -21 13 -5 8 -12 12 -15 7z"/>
<path d="M3587 626 c-4 -10 1 -12 14 -9 23 6 24 9 5 16 -8 3 -17 0 -19 -7z"/>
<path d="M3570 580 c0 -5 5 -10 11 -10 5 0 7 5 4 10 -3 6 -8 10 -11 10 -2 0
-4 -4 -4 -10z"/>
<path d="M2566 563 c-6 -14 -5 -15 5 -6 7 7 10 15 7 18 -3 3 -9 -2 -12 -12z"/>
<path d="M2602 566 c7 -8 15 -12 17 -11 5 6 -10 25 -20 25 -5 0 -4 -6 3 -14z"/>
<path d="M3533 565 c0 -8 4 -12 9 -9 5 3 6 10 3 15 -9 13 -12 11 -12 -6z"/>
<path d="M2631 554 c0 -11 3 -14 6 -6 3 7 2 16 -1 19 -3 4 -6 -2 -5 -13z"/>
<path d="M3450 561 c0 -6 4 -12 8 -15 5 -3 9 1 9 9 0 8 -4 15 -9 15 -4 0 -8
-4 -8 -9z"/>
<path d="M3496 553 c-6 -14 -5 -15 5 -6 7 7 10 15 7 18 -3 3 -9 -2 -12 -12z"/>
<path d="M3260 500 c-12 -17 -25 -29 -28 -26 -2 3 1 14 9 23 7 10 1 7 -13 -6
-16 -13 -32 -20 -39 -16 -7 5 -10 4 -5 -3 3 -6 17 -9 29 -8 28 3 70 30 60 39
-3 4 -1 7 5 7 7 0 12 -6 12 -12 0 -7 5 -5 11 5 6 10 8 21 5 24 -3 4 -6 0 -6
-8 0 -11 -2 -12 -9 -1 -6 11 -14 6 -31 -18z"/>
<path d="M2762 488 c7 -15 15 -23 17 -17 2 6 -4 18 -13 27 -15 15 -15 15 -4
-10z"/>
<path d="M3330 500 c0 -5 5 -10 11 -10 5 0 7 5 4 10 -3 6 -8 10 -11 10 -2 0
-4 -4 -4 -10z"/>
<path d="M2715 490 c-4 -6 -11 -7 -17 -4 -7 4 -8 2 -4 -4 7 -12 36 -5 36 9 0
12 -7 11 -15 -1z"/>
<path d="M3306 483 c-6 -14 -5 -15 5 -6 7 7 10 15 7 18 -3 3 -9 -2 -12 -12z"/>
<path d="M2737 471 c-4 -17 -3 -21 5 -13 5 5 8 16 6 23 -3 8 -7 3 -11 -10z"/>
<path d="M3264 465 c-18 -15 -18 -15 0 -8 15 5 17 3 11 -8 -5 -8 -4 -11 0 -6
8 7 17 37 11 37 -1 0 -11 -7 -22 -15z"/>
<path d="M2793 434 c0 -9 4 -11 12 -4 7 5 14 9 16 7 2 -1 3 0 1 2 -7 11 -29 7
-29 -5z"/>
<path d="M3120 440 c-11 -7 -11 -10 -2 -10 7 0 11 -4 8 -8 -3 -5 1 -9 9 -9 8
0 15 4 15 9 0 4 -5 8 -11 8 -5 0 -7 5 -4 10 8 12 4 12 -15 0z"/>
<path d="M3190 441 c0 -6 4 -13 10 -16 6 -3 7 1 4 9 -7 18 -14 21 -14 7z"/>
<path d="M3210 446 c0 -2 7 -7 16 -10 8 -3 12 -2 9 4 -6 10 -25 14 -25 6z"/>
<path d="M2895 420 c-3 -5 -1 -10 4 -10 6 0 11 5 11 10 0 6 -2 10 -4 10 -3 0
-8 -4 -11 -10z"/>
<path d="M3093 405 c0 -8 4 -15 9 -15 4 0 8 7 8 15 0 8 -4 15 -8 15 -5 0 -9
-7 -9 -15z"/>
<path d="M3042 405 c4 -4 3 -16 -3 -26 -5 -11 -7 -19 -5 -19 3 0 10 9 16 19 7
15 7 22 -2 27 -7 4 -10 4 -6 -1z"/>
<path d="M3155 401 c-3 -5 -2 -12 3 -15 5 -3 9 1 9 9 0 17 -3 19 -12 6z"/>
<path d="M2935 380 c-3 -5 -1 -10 4 -10 6 0 11 5 11 10 0 6 -2 10 -4 10 -3 0
-8 -4 -11 -10z"/>
<path d="M2990 380 c-13 -8 -12 -10 3 -10 9 0 17 5 17 10 0 12 -1 12 -20 0z"/>
<path d="M2896 353 c-6 -14 -5 -15 5 -6 7 7 10 15 7 18 -3 3 -9 -2 -12 -12z"/>
<path d="M3071 347 c-13 -21 -12 -21 5 -5 10 10 16 20 13 22 -3 3 -11 -5 -18
-17z"/>
<path d="M3113 355 c0 -8 4 -12 9 -9 5 3 6 10 3 15 -9 13 -12 11 -12 -6z"/>
</g>
</svg>
